<svg width="118" height="24" viewBox="0 0 118 24" fill="none" xmlns="http://www.w3.org/2000/svg">
<path d="M37.8799 19.3901C37.2851 19.4223 36.6968 19.2532 36.2099 18.9101C35.7968 18.6039 35.5612 18.1139 35.5799 17.6001V8.33006C35.57 8.25053 35.5974 8.1709 35.654 8.11424C35.7107 8.05758 35.7903 8.03021 35.8699 8.04006H37.5499C37.7399 8.04006 37.8299 8.14006 37.8299 8.33006V16.8801C37.8299 17.2601 37.9999 17.4501 38.3499 17.4501C38.4982 17.4562 38.6466 17.4393 38.7899 17.4001C38.9899 17.4001 39.0999 17.4601 39.1099 17.6401L39.2599 18.8901C39.2744 18.9638 39.2564 19.0402 39.2104 19.0997C39.1644 19.1591 39.0949 19.1957 39.0199 19.2001C38.6519 19.3216 38.2674 19.3857 37.8799 19.3901Z" fill="#696871"/>
<path fill-rule="evenodd" clip-rule="evenodd" d="M41.3298 18.3203C43.0711 19.759 45.5886 19.759 47.3298 18.3203V18.3103C48.8359 16.7397 48.8359 14.2609 47.3298 12.6903C45.5857 11.2595 43.0739 11.2595 41.3298 12.6903C39.7856 14.2493 39.7856 16.7613 41.3298 18.3203ZM45.7698 17.0003C44.9582 17.7355 43.7214 17.7355 42.9098 17.0003C42.1767 16.1574 42.1767 14.9032 42.9098 14.0603C43.7214 13.3251 44.9582 13.3251 45.7698 14.0603C46.5029 14.9032 46.5029 16.1574 45.7698 17.0003Z" fill="#696871"/>
<path fill-rule="evenodd" clip-rule="evenodd" d="M57.9897 12.1602C57.9897 11.9702 57.8997 11.8702 57.7097 11.8702L56.0497 11.8802C55.9719 11.8736 55.8951 11.9024 55.8409 11.9587C55.7866 12.0149 55.7604 12.0926 55.7697 12.1702V12.3302C55.1595 11.8634 54.4077 11.6199 53.6397 11.6402C52.5862 11.6026 51.5621 11.992 50.7997 12.7202C49.3011 14.2706 49.3011 16.7298 50.7997 18.2802C51.5586 19.0149 52.5842 19.4086 53.6397 19.3702C54.3861 19.3914 55.1182 19.1626 55.7197 18.7202V19.3502C55.7401 19.8135 55.5704 20.2651 55.2497 20.6002C54.8989 20.9204 54.434 21.0862 53.9597 21.0602C53.5706 21.068 53.1856 20.9787 52.8397 20.8002C52.5559 20.6467 52.3387 20.3939 52.2297 20.0902C52.1747 19.9552 52.0454 19.8651 51.8997 19.8602H50.2197C49.9497 19.8602 49.9497 19.9502 49.9497 20.1502C50.0904 20.9696 50.5648 21.6938 51.2597 22.1502C52.0648 22.6721 53.0109 22.9339 53.9697 22.9002C55.0313 22.947 56.0712 22.5896 56.8797 21.9002C57.6175 21.2541 58.0251 20.3102 57.9897 19.3302V12.1602ZM55.1997 17.0002C54.8531 17.3902 54.3513 17.6063 53.8297 17.5902C53.3026 17.6054 52.795 17.39 52.4397 17.0002C52.0811 16.5884 51.8917 16.056 51.9097 15.5102C51.8877 14.959 52.0814 14.4209 52.4497 14.0102C52.8042 13.6193 53.3123 13.4036 53.8397 13.4202C54.3565 13.4031 54.8543 13.6154 55.1997 14.0002C55.8836 14.8833 55.8836 16.1171 55.1997 17.0002Z" fill="#696871"/>
<path fill-rule="evenodd" clip-rule="evenodd" d="M60.6198 18.3203C62.3639 19.7511 64.8757 19.7511 66.6198 18.3203V18.3103C68.1258 16.7397 68.1258 14.2609 66.6198 12.6903C64.8743 11.2634 62.3652 11.2634 60.6198 12.6903C59.1124 14.2643 59.1124 16.7463 60.6198 18.3203ZM63.6298 17.5503C63.0955 17.5667 62.577 17.3687 62.1898 17.0003C61.4694 16.1527 61.4694 14.9079 62.1898 14.0603C62.577 13.6919 63.0955 13.4939 63.6298 13.5103C64.1605 13.4965 64.675 13.6944 65.0598 14.0603C65.7801 14.9079 65.7801 16.1527 65.0598 17.0003C64.675 17.3662 64.1605 17.564 63.6298 17.5503Z" fill="#696871"/>
<path fill-rule="evenodd" clip-rule="evenodd" d="M69.4498 10.1704C69.9966 10.6489 70.8131 10.6489 71.3598 10.1704C71.6021 9.94178 71.7393 9.62345 71.7393 9.29038C71.7393 8.95732 71.6021 8.63898 71.3598 8.41038C70.8084 7.94459 70.0013 7.94459 69.4498 8.41038C69.2076 8.63898 69.0703 8.95732 69.0703 9.29038C69.0703 9.62345 69.2076 9.94178 69.4498 10.1704ZM69.8998 18.9104C70.3881 19.2507 70.9754 19.4195 71.5698 19.3904C71.9607 19.3867 72.3486 19.3226 72.7198 19.2004C72.7949 19.196 72.8643 19.1594 72.9104 19.1C72.9564 19.0406 72.9744 18.9641 72.9598 18.8904L72.8098 17.6404C72.7998 17.4604 72.6898 17.4004 72.4898 17.4004C72.3431 17.439 72.1915 17.4558 72.0398 17.4504C71.6998 17.4504 71.5298 17.2604 71.5298 16.8804V12.1604C71.5298 11.9704 71.4398 11.8704 71.2498 11.8704H69.5698C69.4903 11.8605 69.4107 11.8879 69.354 11.9446C69.2973 12.0012 69.27 12.0809 69.2798 12.1604V17.6004C69.2622 18.1117 69.4933 18.5998 69.8998 18.9104Z" fill="#696871"/>
<path fill-rule="evenodd" clip-rule="evenodd" d="M81.9999 12.7103C81.232 11.9781 80.2001 11.5884 79.1399 11.6303C78.2141 11.6101 77.3209 11.9718 76.6699 12.6303C76.3266 11.9594 75.6106 11.5638 74.8599 11.6303C74.4919 11.6235 74.1258 11.6845 73.7799 11.8103C73.635 11.8523 73.5392 11.9898 73.5499 12.1403V13.3203C73.5499 13.4803 73.6599 13.5603 73.8799 13.5603H74.2099C74.3725 13.5364 74.5369 13.5908 74.6531 13.7071C74.7693 13.8233 74.8238 13.9877 74.7999 14.1503V22.3503C74.7853 22.4281 74.8101 22.5081 74.8661 22.5641C74.9221 22.6201 75.0021 22.6448 75.0799 22.6303H76.7599C76.9499 22.6303 77.0499 22.5403 77.0499 22.3503V18.7403C77.6572 19.1787 78.391 19.4069 79.1399 19.3903C80.2021 19.433 81.2355 19.0392 81.9999 18.3003C83.467 16.7257 83.467 14.2848 81.9999 12.7103ZM78.9599 17.5898C78.4387 17.5898 77.9402 17.3768 77.5799 17.0003C77.2186 16.5742 77.0296 16.0285 77.0499 15.4703C77.0266 14.9116 77.216 14.3649 77.5799 13.9403C77.9402 13.5637 78.4387 13.3508 78.9599 13.3508C79.481 13.3508 79.9796 13.5637 80.3399 13.9403C80.7183 14.3575 80.9161 14.9076 80.8899 15.4703C80.9128 16.0325 80.7155 16.5814 80.3399 17.0003C79.9796 17.3768 79.481 17.5898 78.9599 17.5898Z" fill="#696871"/>
<path d="M87.8198 19.3901C86.9221 19.427 86.032 19.2123 85.2498 18.7701C84.6141 18.3872 84.1872 17.7358 84.0898 17.0001C84.0898 16.8001 84.1598 16.7001 84.3798 16.7001H85.8498C85.9924 16.7057 86.1199 16.7907 86.1798 16.9201C86.3898 17.4601 86.9398 17.7301 87.8198 17.7301C88.1268 17.7442 88.4325 17.6823 88.7098 17.5501C88.9049 17.462 89.0356 17.2737 89.0498 17.0601C89.0498 16.8001 88.8898 16.6201 88.5698 16.5001C88.1903 16.3738 87.7979 16.29 87.3998 16.2501C86.9283 16.1968 86.4607 16.1133 85.9998 16.0001C85.5517 15.8987 85.1442 15.6653 84.8298 15.3301C84.4557 14.8696 84.2895 14.2744 84.371 13.6867C84.4526 13.0989 84.7745 12.5714 85.2598 12.2301C85.9806 11.771 86.8263 11.5473 87.6798 11.5901C88.5062 11.5622 89.3238 11.7666 90.0398 12.1801C90.6242 12.5111 91.0283 13.0879 91.1398 13.7501C91.1398 13.9501 91.0498 14.0501 90.8698 14.0501H89.3898C89.2623 14.0577 89.1432 13.9862 89.0898 13.8701C88.991 13.6333 88.8048 13.4435 88.5698 13.3401C88.3048 13.2015 88.0088 13.1326 87.7098 13.1401C87.4167 13.1242 87.1243 13.1827 86.8598 13.3101C86.6692 13.3837 86.5425 13.5658 86.5398 13.7701C86.553 14.0509 86.7477 14.2902 87.0198 14.3601C87.4039 14.5049 87.8031 14.6055 88.2098 14.6601C88.6775 14.7217 89.1415 14.8085 89.5998 14.9201C90.048 15.0216 90.4555 15.2549 90.7698 15.5901C91.1095 15.9631 91.2859 16.4564 91.2598 16.9601C91.2774 17.6633 90.9243 18.324 90.3298 18.7001C89.5827 19.1798 88.7072 19.4205 87.8198 19.3901Z" fill="#696871"/>
<path d="M101.83 18.8901C101.841 18.9618 101.823 19.0352 101.78 19.0935C101.737 19.1518 101.672 19.1903 101.6 19.2001C101.235 19.3193 100.854 19.3834 100.47 19.3901C99.6969 19.4702 98.9384 19.1402 98.4699 18.5201C97.7635 19.1274 96.8502 19.439 95.9199 19.3901C95.0465 19.4304 94.1967 19.0999 93.5799 18.4801C92.9679 17.8312 92.6465 16.961 92.6899 16.0701V12.1601C92.6899 11.9701 92.7799 11.8701 92.9699 11.8701H94.6499C94.8399 11.8701 94.9299 11.9701 94.9299 12.1601V15.7701C94.9116 16.2199 95.0654 16.6597 95.3599 17.0001C95.6573 17.3156 96.0767 17.487 96.5099 17.4701C96.9526 17.4895 97.3847 17.3311 97.7099 17.0301C98.018 16.7127 98.1809 16.2819 98.1599 15.8401V12.1601C98.1599 11.9701 98.2499 11.8701 98.4399 11.8701H100.14C100.33 11.8701 100.42 11.9701 100.42 12.1601V16.8701C100.42 17.2601 100.59 17.4501 100.92 17.4501C101.075 17.4561 101.23 17.4393 101.38 17.4001C101.457 17.3786 101.539 17.3934 101.603 17.4402C101.667 17.487 101.707 17.5606 101.71 17.6401L101.83 18.8901Z" fill="#696871"/>
<path d="M117.72 18.8904C117.738 18.9629 117.722 19.0397 117.678 19.0997C117.633 19.1597 117.564 19.1966 117.49 19.2004C117.118 19.3213 116.731 19.3853 116.34 19.3904C115.745 19.4211 115.157 19.2521 114.67 18.9104C114.242 18.6131 113.99 18.1216 114 17.6004V15.2504C114.021 14.802 113.871 14.3623 113.58 14.0204C113.296 13.7039 112.885 13.5314 112.46 13.5504C112.077 13.5359 111.708 13.6981 111.46 13.9904C111.196 14.3255 111.061 14.7442 111.08 15.1704V18.8604C111.08 19.0504 110.99 19.1504 110.8 19.1504H109.11C109.03 19.1602 108.951 19.1329 108.894 19.0762C108.837 19.0195 108.81 18.9399 108.82 18.8604V15.2504C108.842 14.8069 108.703 14.3703 108.43 14.0204C108.183 13.7228 107.816 13.5505 107.43 13.5504C107.017 13.5337 106.617 13.6938 106.33 13.9904C106.044 14.3148 105.897 14.7385 105.92 15.1704V18.8604C105.93 18.9399 105.902 19.0195 105.846 19.0762C105.789 19.1329 105.709 19.1602 105.63 19.1504H104C103.81 19.1504 103.72 19.0504 103.72 18.8604V14.1504C103.744 13.9877 103.689 13.8234 103.573 13.7072C103.457 13.5909 103.292 13.5365 103.13 13.5604H102.8C102.58 13.5604 102.47 13.4804 102.47 13.3204V12.1404C102.459 11.9899 102.555 11.8524 102.7 11.8104C103.046 11.6846 103.412 11.6236 103.78 11.6304C104.501 11.569 105.193 11.9267 105.56 12.5504C106.242 11.904 107.162 11.5707 108.1 11.6304C109.014 11.5858 109.894 11.9795 110.47 12.6904C111.14 11.962 112.102 11.5729 113.09 11.6304C113.972 11.5891 114.832 11.9191 115.46 12.5404C116.074 13.188 116.396 14.0591 116.35 14.9504V16.8804C116.35 17.2604 116.52 17.4504 116.84 17.4504C116.995 17.4576 117.15 17.4407 117.3 17.4004C117.506 17.4004 117.616 17.4804 117.63 17.6404L117.72 18.8904Z" fill="#696871"/>
<path fill-rule="evenodd" clip-rule="evenodd" d="M0.459805 10.5703C1.97789 4.4686 7.45713 0.185547 13.7448 0.185547C20.0325 0.185547 25.5117 4.4686 27.0298 10.5703H25.8298C23.8055 10.5405 21.8227 11.1454 20.1598 12.3003C20.0638 12.3698 19.9636 12.4332 19.8598 12.4903H19.7198C19.616 12.4332 19.5158 12.3698 19.4198 12.3003C15.9883 9.99278 11.5013 9.99278 8.06981 12.3003C7.97384 12.3698 7.87364 12.4332 7.7698 12.4903H7.6298C7.52597 12.4332 7.42577 12.3698 7.3298 12.3003C5.66694 11.1454 3.68412 10.5405 1.6598 10.5703H0.459805ZM23.6698 16.8403C24.2858 16.3605 25.0493 16.1096 25.8298 16.1303H27.4398V12.9203H25.8298C24.455 12.9036 23.1117 13.3315 21.9998 14.1403C20.7155 15.0871 18.9641 15.0871 17.6798 14.1403C15.3448 12.5148 12.2448 12.5148 9.9098 14.1403C8.62546 15.0871 6.87415 15.0871 5.5898 14.1403C4.4642 13.3212 3.1016 12.8927 1.7098 12.9203H0.0498047V16.1303H1.6598C2.44031 16.1096 3.20379 16.3605 3.8198 16.8403C6.15075 18.4669 9.24886 18.4669 11.5798 16.8403C12.1966 16.362 12.9595 16.1112 13.7398 16.1303C14.5206 16.1079 15.2846 16.359 15.8998 16.8403C18.2348 18.4657 21.3348 18.4657 23.6698 16.8403ZM25.8298 21.8703C25.0493 21.8496 24.2858 22.1005 23.6698 22.5803C21.3348 24.2057 18.2348 24.2057 15.8998 22.5803C15.2846 22.099 14.5206 21.8479 13.7398 21.8703C12.9595 21.8512 12.1966 22.102 11.5798 22.5803C9.24886 24.2069 6.15075 24.2069 3.8198 22.5803C3.20379 22.1005 2.44031 21.8496 1.6598 21.8703H0.0498047V18.6603H1.7098C3.1016 18.6327 4.4642 19.0612 5.5898 19.8803C6.87415 20.8271 8.62546 20.8271 9.9098 19.8803C12.2448 18.2548 15.3448 18.2548 17.6798 19.8803C18.9641 20.8271 20.7155 20.8271 21.9998 19.8803C23.1117 19.0715 24.455 18.6436 25.8298 18.6603H27.4398V21.8703H25.8298Z" fill="#696871"/>
</svg>
