<svg width="200" height="41" viewBox="0 0 200 41" fill="none" xmlns="http://www.w3.org/2000/svg">
<path d="M30.0279 18.1927C28.8996 19.3279 28.3357 20.9069 28.4897 22.5001L28.4632 22.4736C28.6215 24.3484 27.9452 26.1977 26.6148 27.5281C25.2844 28.8585 23.4351 29.5348 21.5603 29.3765L21.5868 29.403C19.3168 29.1917 17.158 30.4265 16.1893 32.4902C15.2205 34.554 15.6498 37.0036 17.2626 38.6149C18.8754 40.2262 21.3254 40.6533 23.3883 39.6827C25.4511 38.7121 26.6839 36.5522 26.4706 34.2824L26.4985 34.3089C26.3403 32.4341 27.0165 30.5848 28.347 29.2544C29.6774 27.924 31.5266 27.2477 33.4015 27.4059L33.3735 27.3795C35.8683 27.6038 38.1897 26.0827 38.9799 23.7057C39.7701 21.3287 38.8215 18.7205 36.689 17.4065C34.5564 16.0925 31.8001 16.4181 30.0323 18.1927H30.0279Z" fill="#5454D4"/>
<path d="M19.1793 25.9353L19.1514 25.9088C20.7456 26.0695 22.3276 25.5057 23.461 24.3732C24.5944 23.2407 25.1594 21.659 24.9999 20.0647L25.0279 20.0912C24.8696 18.2164 25.5459 16.3671 26.8763 15.0367C28.2067 13.7063 30.056 13.03 31.9308 13.1883L31.9029 13.1618C34.173 13.375 36.3331 12.1416 37.3033 10.0781C38.2736 8.01466 37.8455 5.56436 36.2332 3.95204C34.6209 2.33971 32.1706 1.91168 30.1071 2.8819C28.0437 3.85212 26.8103 6.01219 27.0235 8.28237L26.997 8.25443C27.1558 10.1294 26.4797 11.979 25.1491 13.3095C23.8186 14.6401 21.969 15.3162 20.094 15.1574L20.1205 15.1853C18.5263 15.0247 16.9443 15.5884 15.8109 16.721C14.6775 17.8535 14.1126 19.4351 14.272 21.0294L14.2455 21.003C14.4032 22.8777 13.7268 24.7266 12.3965 26.0569C11.0662 27.3872 9.21727 28.0636 7.34257 27.9059L7.36904 27.9324C5.09886 27.7192 2.93879 28.9526 1.96857 31.016C0.998349 33.0795 1.42638 35.5298 3.03871 37.1421C4.65103 38.7544 7.10133 39.1825 9.16479 38.2123C11.2283 37.242 12.4616 35.082 12.2485 32.8118L12.2764 32.8383C12.1181 30.9634 12.7944 29.1142 14.1248 27.7837C15.4552 26.4533 17.3045 25.7771 19.1793 25.9353Z" fill="#FF7143"/>
<path d="M9.32353 22.984C10.452 21.849 11.0155 20.2697 10.8603 18.6766L10.8882 18.7031C10.7298 16.8277 11.4065 14.9779 12.7376 13.6474C14.0687 12.3169 15.9188 11.641 17.7941 11.8002L17.7662 11.7737C20.0356 11.9863 22.1946 10.753 23.1642 8.69022C24.1339 6.62741 23.7058 4.17808 22.0941 2.56635C20.4824 0.954623 18.0331 0.526618 15.9703 1.49625C13.9074 2.46587 12.6742 4.6249 12.8868 6.8943L12.8603 6.86783C13.0186 8.74266 12.3423 10.5919 11.0119 11.9223C9.68144 13.2528 7.83218 13.929 5.95735 13.7708L5.98382 13.7972C3.48912 13.5735 1.16818 15.0951 0.378454 17.472C-0.411274 19.849 0.537647 22.457 2.67022 23.7706C4.8028 25.0843 7.55886 24.7586 9.32647 22.984H9.32353Z" fill="#5454D4"/>
<path d="M54.8779 8.31641H59.2456V29.5708H54.8779V8.31641Z" fill="#19191B"/>
<path fill-rule="evenodd" clip-rule="evenodd" d="M66.4611 15.1419C63.5787 16.3459 61.7067 19.169 61.7192 22.2927C61.7041 24.3409 62.5132 26.3092 63.9644 27.7547C65.4157 29.2001 67.3872 30.0013 69.4354 29.978C72.5591 29.978 75.3746 28.0946 76.5671 25.2075C77.7596 22.3204 77.0937 18.9991 74.8805 16.7947C72.6673 14.5904 69.3434 13.9378 66.4611 15.1419ZM69.3734 19.0359C71.2112 19.002 72.7331 20.4553 72.7839 22.2927C72.8335 23.2036 72.4999 24.0937 71.8639 24.7476C71.2278 25.4016 70.3473 25.7597 69.4354 25.7353C67.5973 25.7354 66.1023 24.2544 66.0853 22.4164C66.0683 20.5783 67.5355 19.0698 69.3734 19.0359Z" fill="#19191B"/>
<path fill-rule="evenodd" clip-rule="evenodd" d="M94.5589 28.8369V15.0134L90.3074 15.0105V16.4958C89.2703 15.2268 87.693 14.5246 86.0559 14.6031C82.0626 14.7291 78.8906 18.0027 78.8906 21.998C78.8906 25.9933 82.0626 29.2669 86.0559 29.3928C87.693 29.4714 89.2703 28.7692 90.3074 27.5002V28.8311C90.3805 29.7092 90.0506 30.5729 89.4108 31.1787C88.771 31.7845 87.8905 32.0667 87.0177 31.9458C85.6371 32.0867 84.3141 31.3557 83.6986 30.1119L79.9721 32.2664C81.43 34.6418 84.0928 36.0038 86.8721 35.7958C90.7442 35.7958 94.5589 33.7281 94.5589 28.8369ZM88.2335 18.6357C89.5473 19.2283 90.3689 20.5601 90.3089 22.0002C90.3361 22.93 89.9688 23.828 89.2979 24.4724C88.6269 25.1167 87.7148 25.4473 86.7868 25.3825C85.3455 25.3843 84.048 24.5095 83.5091 23.1727C82.9702 21.8359 83.2983 20.3058 84.3379 19.3075C85.3774 18.3092 86.9196 18.0432 88.2335 18.6357Z" fill="#19191B"/>
<path fill-rule="evenodd" clip-rule="evenodd" d="M101.774 15.1419C98.892 16.3459 97.0199 19.169 97.0324 22.2927C97.0173 24.3409 97.8264 26.3092 99.2777 27.7547C100.729 29.2001 102.7 30.0013 104.749 29.978C107.872 29.978 110.688 28.0946 111.88 25.2075C113.073 22.3204 112.407 18.9991 110.194 16.7947C107.981 14.5904 104.657 13.9378 101.774 15.1419ZM104.687 19.0359C106.524 19.002 108.046 20.4553 108.097 22.2927C108.147 23.2036 107.813 24.0937 107.177 24.7476C106.541 25.4016 105.661 25.7597 104.749 25.7353C102.91 25.7354 101.416 24.2544 101.399 22.4164C101.382 20.5783 102.849 19.0698 104.687 19.0359Z" fill="#19191B"/>
<path fill-rule="evenodd" clip-rule="evenodd" d="M116.119 8.69077C115.14 9.09639 114.501 10.0519 114.501 11.1119C114.516 12.5532 115.681 13.7181 117.122 13.7325C118.182 13.7325 119.138 13.094 119.543 12.1147C119.949 11.1355 119.725 10.0083 118.975 9.25884C118.226 8.50936 117.098 8.28515 116.119 8.69077ZM119.312 15.0133H114.943L114.937 29.5722H119.312V15.0133Z" fill="#19191B"/>
<path fill-rule="evenodd" clip-rule="evenodd" d="M136.289 27.5827C137.595 26.1402 138.273 24.2364 138.171 22.293C138.273 20.3493 137.597 18.4449 136.29 17.002C134.984 15.5591 133.156 14.6968 131.212 14.6063C129.573 14.5169 127.981 15.1686 126.875 16.3813V15.0136H122.507V35.3945H126.875V28.2019C127.98 29.4155 129.573 30.0678 131.212 29.9783C133.156 29.8874 134.983 29.0252 136.289 27.5827ZM130.281 18.9156C132.183 18.8837 133.755 20.3914 133.803 22.293C133.869 23.2381 133.528 24.1664 132.867 24.8446C132.205 25.5229 131.286 25.8866 130.34 25.8445C128.437 25.8447 126.891 24.3112 126.875 22.409C126.859 20.5068 128.379 18.9474 130.281 18.9156Z" fill="#19191B"/>
<path d="M151.648 25.2033C151.648 28.5518 148.738 29.9783 145.594 29.9783C142.995 30.2137 140.515 28.8411 139.334 26.5136L143.118 24.3592C143.433 25.4427 144.463 26.1585 145.588 26.0768C146.635 26.0768 147.16 25.7562 147.16 25.1753C147.16 23.5724 139.997 24.418 139.997 19.3812C139.997 16.2062 142.676 14.6062 145.704 14.6062C148.023 14.5329 150.197 15.7261 151.381 17.7209L147.654 19.7298C147.32 18.9502 146.552 18.4458 145.704 18.4489C144.947 18.4489 144.481 18.743 144.481 19.2636C144.487 20.9239 151.648 19.8165 151.648 25.2033Z" fill="#19191B"/>
<path d="M167.603 15.0132V29.572H163.235V28.2029C162.213 29.4284 160.665 30.0891 159.074 29.9794C156.132 29.9794 153.632 27.8838 153.632 23.9499V15.0132H158V23.3102C157.926 24.0121 158.165 24.7109 158.653 25.2208C159.14 25.7307 159.828 26.0001 160.532 25.9573C162.134 25.9573 163.24 25.0264 163.24 22.9588V15.0176L167.603 15.0132Z" fill="#19191B"/>
<path d="M192.647 20.6323V29.5705H188.279V21.0102C188.279 19.5543 187.581 18.6235 186.184 18.6235C184.728 18.6235 183.912 19.6426 183.912 21.3602V29.5705H179.546V21.0102C179.546 19.5543 178.847 18.6235 177.449 18.6235C175.993 18.6235 175.178 19.6426 175.178 21.3602V29.5705H170.81V15.0117H175.178V16.3499C176.098 15.1436 177.567 14.4863 179.079 14.6043C180.6 14.53 182.047 15.2591 182.893 16.5249C183.876 15.2017 185.471 14.4764 187.115 14.6043C190.457 14.6058 192.647 16.9926 192.647 20.6323Z" fill="#19191B"/>
<path d="M196.341 14.9238C198.131 14.9238 199.582 13.4726 199.582 11.6826C199.582 9.89253 198.131 8.44141 196.341 8.44141C194.551 8.44141 193.1 9.89253 193.1 11.6826C193.1 13.4726 194.551 14.9238 196.341 14.9238Z" fill="#19191B"/>
</svg>
