<svg width="101" height="48" viewBox="0 0 101 48" fill="none" xmlns="http://www.w3.org/2000/svg">
<path d="M0.790039 28.79H3.79004V43.5H0.790039V28.79Z" fill="#696871"/>
<path fill-rule="evenodd" clip-rule="evenodd" d="M8.81956 33.5194C6.82446 34.3491 5.52598 36.2993 5.53003 38.46C5.51649 39.8795 6.07507 41.2446 7.07976 42.2474C8.08445 43.2502 9.4506 43.8062 10.87 43.79C13.0308 43.79 14.9786 42.4879 15.8045 40.4912C16.6304 38.4946 16.1717 36.197 14.6424 34.6705C13.1131 33.1441 10.8147 32.6897 8.81956 33.5194ZM10.8311 36.2004C12.1043 36.1785 13.1571 37.187 13.19 38.46C13.2238 39.0905 12.9923 39.7063 12.5516 40.1584C12.1109 40.6105 11.5011 40.8577 10.87 40.84C9.59663 40.8396 8.56158 39.8129 8.55088 38.5395C8.54019 37.2662 9.55785 36.2222 10.8311 36.2004Z" fill="#696871"/>
<path fill-rule="evenodd" clip-rule="evenodd" d="M28.27 43V33.42L25.32 33.45V34.45C24.6016 33.5739 23.5118 33.0883 22.38 33.14C19.5523 33.14 17.26 35.4323 17.26 38.26C17.26 41.0877 19.5523 43.38 22.38 43.38C23.5127 43.4366 24.6046 42.95 25.32 42.07V43C25.3781 43.618 25.146 44.228 24.6916 44.651C24.2373 45.074 23.6123 45.262 23 45.16C22.0606 45.2377 21.1689 44.7344 20.75 43.89L18.17 45.38C19.1785 47.0215 21.0188 47.9629 22.94 47.82C25.62 47.82 28.27 46.39 28.27 43ZM23.8851 35.9357C24.7929 36.3451 25.3608 37.265 25.32 38.26C25.3386 38.9038 25.0839 39.5254 24.6191 39.9712C24.1542 40.4171 23.5225 40.6454 22.88 40.6C21.8842 40.5991 20.9888 39.9933 20.6178 39.0692C20.2467 38.1451 20.4745 37.0882 21.1932 36.3989C21.9119 35.7097 22.9774 35.5263 23.8851 35.9357Z" fill="#696871"/>
<path fill-rule="evenodd" clip-rule="evenodd" d="M33.2895 33.5194C31.2944 34.3491 29.9959 36.2993 30 38.46C29.9865 39.8795 30.545 41.2446 31.5497 42.2474C32.5544 43.2502 33.9206 43.8062 35.34 43.79C37.5007 43.79 39.4485 42.4879 40.2745 40.4912C41.1004 38.4946 40.6417 36.197 39.1124 34.6705C37.5831 33.1441 35.2846 32.6897 33.2895 33.5194ZM35.301 36.2004C36.5742 36.1785 37.6271 37.187 37.66 38.46H37.64C37.6734 39.0869 37.4446 39.6995 37.0083 40.1509C36.5721 40.6024 35.9677 40.852 35.34 40.84C34.0666 40.8396 33.0315 39.8129 33.0209 38.5395C33.0102 37.2662 34.0278 36.2222 35.301 36.2004Z" fill="#696871"/>
<path fill-rule="evenodd" clip-rule="evenodd" d="M43.8901 28.9004C42.8849 28.9004 42.0701 29.7152 42.0701 30.7204C42.0755 31.7233 42.8872 32.5349 43.8901 32.5404C44.8952 32.5404 45.7101 31.7255 45.7101 30.7204C45.7101 29.7152 44.8952 28.9004 43.8901 28.9004ZM45.3801 33.4204H42.3801V43.5004H45.3801V33.4204Z" fill="#696871"/>
<path fill-rule="evenodd" clip-rule="evenodd" d="M57.1642 42.126C58.0671 41.1254 58.5336 39.8059 58.4601 38.4602C58.5309 37.1161 58.0632 35.7992 57.1605 34.8008C56.2578 33.8024 54.9945 33.2048 53.6501 33.1402C52.5174 33.0858 51.4187 33.5362 50.6501 34.3702V33.4202H47.6501V47.5602H50.6501V42.5602C51.4187 43.3941 52.5174 43.8445 53.6501 43.7902C54.9964 43.7256 56.2612 43.1266 57.1642 42.126ZM53.0407 36.121C54.3503 36.11 55.427 37.1509 55.4601 38.4602H55.4401C55.4877 39.1225 55.2466 39.773 54.779 40.2445C54.3114 40.7159 53.6628 40.9623 53.0001 40.9202C51.6909 40.887 50.6499 39.8103 50.661 38.5007C50.6721 37.191 51.731 36.1321 53.0407 36.121Z" fill="#696871"/>
<path d="M67.8 40.48C67.8 42.8 65.8 43.79 63.6 43.79C61.802 43.9492 60.0879 42.9991 59.27 41.39L61.89 39.9C62.1092 40.6495 62.8211 41.1449 63.6 41.09C64.33 41.09 64.69 40.86 64.69 40.46C64.69 39.35 59.69 39.94 59.69 36.46C59.69 34.26 61.55 33.15 63.69 33.15C65.2981 33.1011 66.8064 33.928 67.63 35.31L65 36.69C64.7626 36.1504 64.2295 35.8015 63.64 35.8C63.12 35.8 62.8 36 62.8 36.37C62.84 37.52 67.8 36.75 67.8 40.48Z" fill="#696871"/>
<path d="M78.8399 33.4204V43.5004H75.8399V42.5604C75.132 43.4076 74.0614 43.8648 72.9599 43.7904C70.9599 43.7904 69.1899 42.3404 69.1899 39.6104V33.4204H72.1899V39.1704C72.1365 39.6666 72.3092 40.1606 72.6602 40.5154C73.0111 40.8703 73.5032 41.0484 73.9999 41.0004C75.0999 41.0004 75.8699 40.3604 75.8699 38.9304V33.4204H78.8399Z" fill="#696871"/>
<path d="M96.1801 37.3202V43.5002H93.1801V37.5802C93.1801 36.5802 92.6901 35.9202 91.7301 35.9202C90.7701 35.9202 90.1501 36.6302 90.1501 37.8202V43.5002H87.1501V37.5802C87.1501 36.5802 86.6701 35.9202 85.7001 35.9202C84.7301 35.9202 84.1301 36.6302 84.1301 37.8202V43.5002H81.1301V33.4202H84.1301V34.3502C84.7672 33.5157 85.7833 33.0603 86.8301 33.1402C87.8826 33.0891 88.8848 33.594 89.4701 34.4702C90.1504 33.5547 91.253 33.0526 92.3901 33.1402C94.6701 33.1402 96.1801 34.8002 96.1801 37.3202Z" fill="#696871"/>
<path d="M98.74 33.3604C99.9771 33.3604 100.98 32.3575 100.98 31.1204C100.98 29.8833 99.9771 28.8804 98.74 28.8804C97.5029 28.8804 96.5 29.8833 96.5 31.1204C96.5 32.3575 97.5029 33.3604 98.74 33.3604Z" fill="#696871"/>
<path d="M34.74 21.1602C40.5335 21.1602 45.23 16.4636 45.23 10.6702C45.23 4.87671 40.5335 0.180176 34.74 0.180176C28.9465 0.180176 24.25 4.87671 24.25 10.6702C24.25 16.4636 28.9465 21.1602 34.74 21.1602Z" fill="#696871"/>
<path d="M58.19 21.1602C63.9834 21.1602 68.68 16.4636 68.68 10.6702C68.68 4.87671 63.9834 0.180176 58.19 0.180176C52.3965 0.180176 47.7 4.87671 47.7 10.6702C47.7 16.4636 52.3965 21.1602 58.19 21.1602Z" fill="#696871"/>
<rect x="0.810059" y="0.180176" width="20.97" height="20.97" fill="#696871"/>
</svg>
