<svg width="120" height="28" viewBox="0 0 120 28" fill="none" xmlns="http://www.w3.org/2000/svg">
<path fill-rule="evenodd" clip-rule="evenodd" d="M71.3497 7.38124C70.7832 7.63229 70.424 8.20028 70.4401 8.81973V8.83973C70.4364 9.24665 70.6026 9.63666 70.8988 9.91574C71.1949 10.1948 71.5941 10.3376 72.0001 10.3097C72.6197 10.2974 73.1706 9.91254 73.3954 9.3351C73.6202 8.75765 73.4745 8.10162 73.0264 7.67362C72.5783 7.24563 71.9162 7.13018 71.3497 7.38124ZM37.8701 8.06973H34.8701V20.1997H37.8701V8.06973ZM43.7401 10.8297C40.9001 10.8297 39.0601 12.6197 39.0601 15.6197C39.0601 18.6697 40.8601 20.4197 43.7401 20.4197C46.6201 20.4197 48.4201 18.6197 48.4201 15.6197C48.4201 12.6197 46.5801 10.8297 43.7401 10.8297ZM45.4101 15.6197C45.4101 13.9697 44.7601 12.9997 43.7401 12.9997C42.7201 12.9997 42.0801 13.9997 42.0801 15.6197C42.0801 17.2397 42.7101 18.2197 43.7401 18.2197C44.7701 18.2197 45.4101 17.2997 45.4101 15.6297V15.6197ZM52.4301 20.7897H49.5501V20.7997C49.7201 22.4597 51.3701 23.6497 54.0201 23.6497C56.8701 23.6497 58.8001 22.2897 58.8001 20.0997V10.9997H55.8001V12.6697C55.3377 11.5645 54.2373 10.8628 53.0401 10.9097C50.7401 10.9097 49.3601 12.7197 49.3601 15.5897C49.3601 18.4597 50.8101 20.1297 53.0001 20.1297C54.1599 20.1927 55.2411 19.5432 55.7301 18.4897H55.7901V20.1697C55.7901 21.0697 55.1901 21.6897 54.0501 21.6897C53.3705 21.7811 52.7116 21.4151 52.4301 20.7897ZM55.8001 15.6097C55.8001 14.1497 55.1301 13.2297 54.0701 13.2297C53.0101 13.2297 52.3601 14.1397 52.3601 15.6097C52.3601 17.0797 53.0001 17.9097 54.0701 17.9097C55.1401 17.9097 55.8001 17.0997 55.8001 15.6197V15.6097ZM64.6101 10.8197C61.7701 10.8197 59.9301 12.6097 59.9301 15.6097V15.6197C59.9301 18.6697 61.7201 20.4097 64.6101 20.4097C67.5001 20.4097 69.3001 18.6097 69.3001 15.6097C69.3001 12.6097 67.4501 10.8197 64.6101 10.8197ZM66.2801 15.6097C66.2801 13.9597 65.6301 12.9897 64.6101 12.9897C63.5901 12.9897 63.0001 13.9997 63.0001 15.6297C63.0001 17.2597 63.6301 18.2297 64.6501 18.2297C65.6701 18.2297 66.2801 17.2997 66.2801 15.6297V15.6097ZM70.4401 11.0197H73.4401V20.1997H70.4401V11.0197ZM80.7201 20.3197C83.0001 20.3197 84.3301 18.6097 84.3301 15.6097L84.3701 15.6297C84.3701 12.6297 83.0001 10.9097 80.7001 10.8697C79.4933 10.8159 78.3819 11.5235 77.9201 12.6397H77.8601V10.9997H74.8601V23.1397H77.8601V18.6197H77.9201C78.4044 19.7177 79.5226 20.3966 80.7201 20.3197ZM81.3301 15.6097C81.3301 14.1497 80.6601 13.2197 79.6101 13.2197C78.5601 13.2197 77.8901 14.1597 77.8801 15.6097C77.8701 17.0597 78.5601 17.9897 79.6101 17.9897C80.6601 17.9897 81.3301 17.0797 81.3301 15.6297V15.6097ZM93.5501 13.8797C93.4801 11.9897 91.9701 10.8097 89.4801 10.8097V10.8297C87.0001 10.8297 85.3901 11.9997 85.3701 13.7997C85.3701 15.1997 86.3101 16.1497 88.1001 16.5197L89.8301 16.8897C90.5501 17.0397 90.8301 17.1397 90.8301 17.6197C90.8301 18.0997 90.4301 18.3897 89.5501 18.3897C88.6701 18.3897 88.1301 17.9897 88.0401 17.3097H85.1501C85.2801 19.1797 86.9501 20.3997 89.5001 20.3997C92.0501 20.3997 93.7801 19.1797 93.7801 17.2797C93.7801 15.8897 93.0001 15.1497 91.1701 14.7597L89.2501 14.3697C88.5801 14.2297 88.2501 14.0797 88.2501 13.6097C88.2501 13.1397 88.6201 12.8197 89.4501 12.8197C90.2801 12.8197 90.8201 13.2297 90.8201 13.8797H93.5501ZM103.79 20.1797H100.9V18.4697H100.84C100.513 19.6526 99.4056 20.4477 98.1801 20.3797C97.2579 20.4322 96.3583 20.0823 95.7138 19.4205C95.0693 18.7588 94.7433 17.8502 94.8201 16.9297V10.9997H97.8201V16.2397C97.8201 17.3297 98.3801 17.9097 99.3101 17.9097C99.7513 17.9106 100.171 17.721 100.463 17.3896C100.754 17.0582 100.888 16.6171 100.83 16.1797V10.9997H103.83L103.79 20.1797ZM108.14 10.9997H105.24L105.19 20.1997H108.19V14.7897C108.144 14.4093 108.264 14.0274 108.518 13.7407C108.772 13.454 109.137 13.2899 109.52 13.2897C110.34 13.2897 110.79 13.7897 110.79 14.7097V20.1997H113.64V14.7697C113.591 14.3939 113.707 14.0152 113.958 13.7314C114.209 13.4476 114.571 13.2865 114.95 13.2897C115.79 13.2897 116.24 13.7497 116.24 14.7497V20.1997H119.24V13.9497C119.3 13.1264 119.008 12.3162 118.435 11.7211C117.863 11.1261 117.065 10.802 116.24 10.8297C114.954 10.7745 113.793 11.5975 113.42 12.8297H113.36C113.161 11.6006 112.051 10.7303 110.81 10.8297C109.6 10.8074 108.527 11.6046 108.2 12.7697H108.14V10.9997Z" fill="#696871"/>
<path fill-rule="evenodd" clip-rule="evenodd" d="M24.4801 5.3999C25.2976 6.37183 25.9712 7.45626 26.4801 8.6199C27.2214 10.3165 27.6027 12.1484 27.6001 13.9999C27.5946 21.4733 21.5434 27.5334 14.0701 27.5499C12.3312 27.5489 10.6091 27.2093 9.00009 26.5499C7.85244 26.0939 6.77509 25.4778 5.80009 24.7199C1.65307 21.5595 -0.308887 16.2973 0.756806 11.1933C1.8225 6.08937 5.72618 2.05194 10.7914 0.814978C15.8565 -0.421984 21.1818 1.36166 24.4801 5.3999ZM18.5801 4.1899C17.1643 3.53104 15.6216 3.18973 14.0601 3.1899L14.0701 3.1699C10.3671 3.16714 6.92092 5.06168 4.93906 8.18964C2.9572 11.3176 2.71604 15.2428 4.30009 18.5899C4.75178 18.1154 5.03013 17.5023 5.09009 16.8499C5.4538 14.3373 7.4275 12.3636 9.94009 11.9999C11.3577 11.8713 12.4898 10.7643 12.6501 9.3499C13.0138 6.83731 14.9875 4.86361 17.5001 4.4999C17.8719 4.44325 18.2349 4.33907 18.5801 4.1899ZM5.79009 20.9999C5.83009 20.9632 5.8701 20.9277 5.9101 20.8921L5.91016 20.8921C5.99014 20.821 6.07011 20.7499 6.15009 20.6699C7.03974 19.8074 7.6108 18.6688 7.77009 17.4399C7.83467 16.7491 8.14309 16.1039 8.64009 15.6199C9.11834 15.1221 9.76206 14.8162 10.4501 14.7599C12.9627 14.3962 14.9364 12.4225 15.3001 9.9099C15.3434 9.18741 15.6534 8.50674 16.1701 7.9999C16.6601 7.51175 17.31 7.217 18.0001 7.1699C19.124 7.01526 20.1722 6.51561 21.0001 5.7399C21.9427 6.52197 22.7414 7.46279 23.3601 8.5199C23.3221 8.57125 23.2785 8.61821 23.2301 8.6599C22.7528 9.16209 22.1099 9.47466 21.4201 9.5399C18.9044 9.89734 16.9275 11.8742 16.5701 14.3899C16.4248 15.8092 15.3 16.9299 13.8801 17.0699C11.3605 17.4308 9.3765 19.4026 9.00009 21.9199C8.94627 22.4086 8.77843 22.8779 8.51009 23.2899C7.48409 22.6807 6.56518 21.9071 5.79009 20.9999ZM11.0601 24.4399C12.0355 24.7196 13.0454 24.861 14.0601 24.8599V24.8099C17.4092 24.7969 20.5634 23.2337 22.6022 20.5767C24.641 17.9196 25.3344 14.4682 24.4801 11.2299C23.7209 11.7667 22.8421 12.11 21.9201 12.2299C20.5041 12.3744 19.3846 13.4939 19.2401 14.9099C18.8753 17.4256 16.8966 19.4002 14.3801 19.7599C12.9641 19.9044 11.8446 21.0239 11.7001 22.4399C11.6107 23.1401 11.3938 23.8179 11.0601 24.4399Z" fill="#696871"/>
</svg>
