<svg width="128" height="30" viewBox="0 0 128 30" fill="none" xmlns="http://www.w3.org/2000/svg">
<path fill-rule="evenodd" clip-rule="evenodd" d="M75.7124 8.51553C75.1024 8.79157 74.7214 9.41072 74.75 10.0797L74.77 10.0897C74.7752 10.5123 74.9495 10.9151 75.2539 11.2083C75.5584 11.5014 75.9675 11.6604 76.39 11.6497C77.0596 11.6491 77.6615 11.2415 77.9107 10.62C78.1599 9.99856 78.0063 9.28802 77.5226 8.82501C77.039 8.36199 76.3224 8.23949 75.7124 8.51553ZM39.72 9.25967H36.51V22.2597H39.72V9.25967ZM46 12.2197C43 12.2197 41 14.1497 41 17.3697C41 20.6597 42.93 22.5397 46 22.5397C49.07 22.5397 51 20.5897 51 17.3697C51 14.1497 49 12.2197 46 12.2197ZM47.82 17.3697C47.82 15.5997 47.13 14.5597 46.03 14.5597C44.93 14.5597 44.25 15.5597 44.25 17.3697C44.25 19.1797 44.93 20.1697 46.03 20.1697C47.13 20.1697 47.84 19.1797 47.84 17.3797L47.82 17.3697ZM55.38 22.9297H52.28L52.3 22.9397C52.48 24.7297 54.26 25.9997 57.04 26.0097C60.1 26.0097 62.18 24.5397 62.18 22.1897V12.4497H59V14.0624C58.4571 12.9755 57.3169 12.304 56.09 12.3697C53.58 12.3697 52.09 14.2897 52.09 17.3697C52.09 20.4497 53.65 22.2397 56 22.2397C57.2579 22.3318 58.4432 21.6454 58.99 20.5106V22.2897C58.99 23.2697 58.35 23.9297 57.12 23.9297C56.3814 24.0244 55.67 23.6156 55.38 22.9297ZM59 17.3697C59 15.7997 58.28 14.8097 57.14 14.8097C56 14.8097 55.3 15.8097 55.3 17.3697C55.3 18.9297 55.99 19.8497 57.14 19.8497C58.29 19.8497 59 18.9997 59 17.3697ZM68.45 12.2197C65.45 12.2197 63.45 14.1497 63.45 17.3697H63.47C63.47 20.6597 65.39 22.5397 68.45 22.5397C71.51 22.5397 73.45 20.5897 73.45 17.3697C73.45 14.1497 71.45 12.2197 68.45 12.2197ZM70.27 17.3697C70.27 15.5997 69.57 14.5597 68.48 14.5597C67.39 14.5597 66.7 15.5597 66.7 17.3697C66.7 19.1797 67.38 20.1697 68.48 20.1697C69.58 20.1697 70.29 19.1797 70.29 17.3797L70.27 17.3697ZM74.75 12.4397H78V22.2997H74.8L74.75 12.4397ZM85.8 22.4397C88.25 22.4397 89.69 20.5797 89.69 17.3697L89.75 17.3797C89.75 14.1597 88.3 12.3097 85.78 12.3297C84.4796 12.2678 83.2799 13.0276 82.78 14.2297H82.72V12.4697H79.53V25.4697H82.74V20.6097H82.8C83.3175 21.7883 84.5153 22.5189 85.8 22.4397ZM86.42 17.3697C86.42 15.8097 85.69 14.7997 84.56 14.7997C83.43 14.7997 82.72 15.7997 82.71 17.3697C82.7 18.9397 83.43 19.9297 84.56 19.9297C85.69 19.9297 86.48 18.9997 86.48 17.3797L86.42 17.3697ZM99.55 15.5197C99.53 13.4797 97.86 12.2097 95.17 12.2097L95.23 12.2197C92.52 12.2197 90.84 13.4697 90.78 15.4297C90.78 16.9397 91.79 17.9497 93.72 18.3597L95.58 18.7497C96.35 18.9097 96.65 18.9997 96.65 19.5297C96.65 20.0597 96.21 20.3597 95.27 20.3597C94.33 20.3597 93.75 19.9297 93.66 19.1997H90.55C90.68 21.2097 92.47 22.5297 95.22 22.5297C97.97 22.5297 99.82 21.1697 99.82 19.1697C99.82 17.6797 99.02 16.8797 97.02 16.4597L94.96 16.0397C94.22 15.8897 93.85 15.7297 93.85 15.2197C93.85 14.7097 94.27 14.3697 95.15 14.3697C96.03 14.3697 96.62 14.8097 96.62 15.5197H99.55ZM110.57 22.2897H107.46V20.4397H107.4C107.041 21.7108 105.849 22.5627 104.53 22.4897C103.552 22.5215 102.608 22.1344 101.934 21.4258C101.259 20.7172 100.92 19.7545 101 18.7797V12.4497H104.21V18.0897C104.21 19.2497 104.82 19.8797 105.82 19.8797C106.295 19.8761 106.745 19.667 107.053 19.3065C107.362 18.9459 107.499 18.4693 107.43 17.9997V12.4497H110.63L110.57 22.2897ZM115.24 12.4397H112.12L112.14 22.2997H115.35V16.4797C115.298 16.0703 115.425 15.6585 115.699 15.35C115.973 15.0415 116.367 14.8664 116.78 14.8697C117.66 14.8697 118.15 15.3997 118.15 16.3997V22.2997H121.21V16.4597C121.155 16.055 121.279 15.6462 121.55 15.3406C121.821 15.035 122.212 14.863 122.62 14.8697C123.53 14.8697 124 15.4297 124 16.4297V22.2997H127.23V15.6097C127.296 14.7236 126.981 13.8514 126.365 13.2118C125.748 12.5722 124.888 12.2259 124 12.2597C122.642 12.1961 121.411 13.0537 121 14.3497H120.86C120.623 13.0505 119.436 12.1453 118.12 12.2597C116.819 12.2332 115.665 13.0879 115.31 14.3397H115.24V12.4397Z" fill="#696871"/>
<path fill-rule="evenodd" clip-rule="evenodd" d="M30.16 10.1099C30.1602 6.03627 27.6602 2.38014 23.8641 0.902395C20.068 -0.575349 15.754 0.428268 13 3.42987H0.52002V29.7699H26.87V17.4599C28.9617 15.589 30.1581 12.9162 30.16 10.1099ZM25.09 10.1099C25.0941 12.0603 23.9223 13.8209 22.1215 14.5701C20.3207 15.3193 18.2459 14.9094 16.8653 13.5317C15.4847 12.1539 15.0705 10.08 15.816 8.27765C16.5614 6.47532 18.3196 5.29988 20.27 5.29987C22.9281 5.29987 25.0845 7.45176 25.09 10.1099ZM5.59002 24.6999H21.8V19.8699C21.2943 19.9537 20.7827 19.9972 20.27 19.9999C14.8102 19.9944 10.3855 15.5697 10.38 10.1099C10.3844 9.56993 10.4346 9.03133 10.53 8.49987H5.59002V24.6999Z" fill="#696871"/>
</svg>
