<svg width="124" height="30" viewBox="0 0 124 30" fill="none" xmlns="http://www.w3.org/2000/svg">
<path d="M26.7299 10.71C27.0899 10.71 27.2099 10.84 27.2099 11.19V19.11H31.2799C31.6299 19.11 31.7599 19.24 31.7599 19.59V20.29C31.7599 20.64 31.6299 20.77 31.2799 20.77H25.9199C25.5699 20.77 25.4299 20.64 25.4299 20.29V11.19C25.4299 10.84 25.5699 10.71 25.9199 10.71H26.7299Z" fill="#696871"/>
<path fill-rule="evenodd" clip-rule="evenodd" d="M39.3101 10.5C36.7701 10.5 35.3101 11.89 35.3101 14.2V17.28C35.3101 19.59 36.7801 20.98 39.3101 20.98C41.8401 20.98 43.3101 19.59 43.3101 17.28V14.2C43.3101 11.89 41.8501 10.5 39.3101 10.5ZM39.3601 12.2C40.8201 12.2 41.6301 12.9 41.6301 14.2V17.3C41.6301 18.58 40.8201 19.3 39.3601 19.3C37.9001 19.3 37.1001 18.61 37.1001 17.3V14.2C37.1001 12.91 37.9001 12.2 39.3601 12.2Z" fill="#696871"/>
<path d="M55.2199 15.26C55.6099 15.26 55.6999 15.39 55.6999 15.74V17.64C55.7213 18.5464 55.3317 19.4139 54.6399 20C53.7916 20.6755 52.722 21.0106 51.6399 20.94C49.0499 20.94 47.6399 19.55 47.6399 17.24V14.14C47.6399 11.86 49.0999 10.46 51.6399 10.46C53.6399 10.46 54.9399 11.25 55.4899 12.83C55.5523 12.9503 55.5542 13.0931 55.4952 13.2151C55.4361 13.3371 55.323 13.4242 55.1899 13.45L54.4099 13.72C54.0699 13.84 53.9299 13.77 53.8099 13.42C53.4691 12.5412 52.5754 12.0059 51.6399 12.12C50.1699 12.12 49.3699 12.83 49.3699 14.12V17.3C49.3699 18.61 50.1799 19.3 51.6399 19.3C53.0999 19.3 53.9999 18.63 53.9999 17.65V16.91H51.8299C51.4699 16.91 51.3399 16.77 51.3399 16.42V15.74C51.3399 15.39 51.4699 15.26 51.8299 15.26H55.2199Z" fill="#696871"/>
<path fill-rule="evenodd" clip-rule="evenodd" d="M63.8301 10.5C61.2901 10.5 59.8301 11.89 59.8301 14.2V17.28C59.8301 19.59 61.3001 20.98 63.8301 20.98C66.3601 20.98 67.8301 19.59 67.8301 17.28V14.2C67.8301 11.89 66.3701 10.5 63.8301 10.5ZM63.8801 12.2C65.3301 12.2 66.1401 12.9 66.1401 14.2V17.3C66.1401 18.58 65.3401 19.3 63.8801 19.3C62.4201 19.3 61.6101 18.61 61.6101 17.3V14.2C61.6101 12.91 62.4301 12.2 63.8801 12.2Z" fill="#696871"/>
<path d="M72.54 11C72.54 10.78 72.61 10.71 72.83 10.71H73.29C73.51 10.71 73.56 10.78 73.56 11V20.48C73.56 20.7 73.56 20.77 73.29 20.77H72.83C72.61 20.77 72.54 20.7 72.54 20.48V11Z" fill="#696871"/>
<path fill-rule="evenodd" clip-rule="evenodd" d="M85.8099 13.85C85.8099 12.1158 84.4041 10.71 82.6699 10.71H78.9399C78.7299 10.71 78.6499 10.78 78.6499 11V20.48C78.6499 20.7 78.7299 20.77 78.9399 20.77H79.4099C79.6199 20.77 79.6699 20.7 79.6699 20.48V16.99H82.6699C84.4041 16.99 85.8099 15.5841 85.8099 13.85ZM84.4678 14.91C84.0784 15.5845 83.3587 16 82.5799 16H79.5799V11.64H82.5799C83.3587 11.64 84.0784 12.0555 84.4678 12.73C84.8573 13.4045 84.8573 14.2355 84.4678 14.91Z" fill="#696871"/>
<path d="M93.62 10.5097C95.2054 10.3347 96.7178 11.221 97.34 12.6897C97.42 12.8497 97.34 12.9797 97.18 13.0597L96.74 13.2597C96.56 13.3297 96.49 13.3197 96.38 13.1297C95.9151 12.0405 94.7989 11.3772 93.62 11.4897C91.93 11.4897 91.01 12.1597 91.01 13.3597C90.9897 14.118 91.5317 14.7752 92.28 14.8997C92.8178 15.0751 93.3755 15.1826 93.94 15.2197C94.6233 15.2561 95.2974 15.3943 95.94 15.6297C96.9554 15.951 97.6064 16.9401 97.5 17.9997C97.5 19.8697 96.14 20.9997 93.64 20.9997C91.9503 21.193 90.3549 20.1808 89.81 18.5697C89.7743 18.4975 89.7726 18.4132 89.8055 18.3397C89.8384 18.2662 89.9024 18.2112 89.98 18.1897L90.42 18.0297C90.4901 18.0011 90.569 18.0032 90.6374 18.0355C90.7059 18.0678 90.7576 18.1274 90.78 18.1997C91.239 19.359 92.3962 20.0873 93.64 19.9997C95.53 19.9997 96.46 19.3397 96.46 17.9997C96.4963 17.2723 96.0015 16.6252 95.29 16.4697C94.7726 16.3154 94.239 16.2214 93.7 16.1897L92.62 16.0497C92.282 15.978 91.9482 15.8878 91.62 15.7797C91.2958 15.6818 90.9936 15.5222 90.73 15.3097C90.193 14.8234 89.8999 14.1236 89.93 13.3997C90 11.6497 91.31 10.5097 93.62 10.5097Z" fill="#696871"/>
<path d="M102.89 17.35C102.978 18.8179 104.194 19.9633 105.665 19.9633C107.135 19.9633 108.352 18.8179 108.44 17.35V11C108.44 10.78 108.51 10.71 108.73 10.71H109.19C109.41 10.71 109.48 10.78 109.48 11V17.34C109.48 19.61 108.14 20.98 105.67 20.98C103.2 20.98 101.86 19.61 101.86 17.34V11C101.86 10.78 101.93 10.71 102.14 10.71H102.61C102.82 10.71 102.89 10.78 102.89 11V17.35Z" fill="#696871"/>
<path d="M123.28 10.7097C123.5 10.7097 123.57 10.7797 123.57 10.9997V20.4797C123.57 20.6997 123.5 20.7697 123.28 20.7697H122.86C122.65 20.7697 122.58 20.6997 122.58 20.4797V14.7097C122.58 13.8702 122.637 13.0316 122.75 12.1997H122.69C122.378 12.9604 122.013 13.6988 121.6 14.4097L119.45 18.1997C119.396 18.3343 119.265 18.4218 119.12 18.4197H118.84C118.693 18.4204 118.56 18.3341 118.5 18.1997L116.32 14.3697C115.933 13.669 115.599 12.9403 115.32 12.1897H115.26C115.362 13.0293 115.416 13.874 115.42 14.7197V20.4797C115.42 20.6997 115.35 20.7697 115.13 20.7697H114.74C114.52 20.7697 114.45 20.6997 114.45 20.4797V10.9997C114.45 10.7797 114.52 10.7097 114.74 10.7097H115.1C115.269 10.694 115.429 10.7862 115.5 10.9397L119 17.1597L122.48 10.9997C122.59 10.7897 122.65 10.7597 122.87 10.7597L123.28 10.7097Z" fill="#696871"/>
<path fill-rule="evenodd" clip-rule="evenodd" d="M2.30996 1.68977V21.9998C2.30996 22.2491 2.21093 22.4882 2.03464 22.6644C1.85836 22.8407 1.61926 22.9398 1.36996 22.9398H1.14996C0.630813 22.9398 0.209961 22.5189 0.209961 21.9998V1.68977C0.215443 1.17453 0.634694 0.759736 1.14996 0.759766H1.36996C1.88523 0.759736 2.30448 1.17453 2.30996 1.68977ZM13.8403 14.5644C14.0388 14.3753 14.3062 14.2761 14.58 14.2898L14.53 14.3098C14.821 14.2801 15.1104 14.3793 15.322 14.5812C15.5335 14.7832 15.6461 15.0677 15.63 15.3598V20.8598C15.63 21.4397 15.1599 21.9098 14.58 21.9098C14.0001 21.9098 13.53 21.4397 13.53 20.8598V15.2898C13.5296 15.0157 13.6418 14.7534 13.8403 14.5644ZM16.84 17.4598C16.84 16.9075 17.2877 16.4598 17.84 16.4598C18.1293 16.4332 18.4159 16.5338 18.6252 16.7354C18.8345 16.937 18.9457 17.2196 18.93 17.5098V18.7198C18.93 19.2969 18.4621 19.7648 17.885 19.7648C17.3078 19.7648 16.84 19.2969 16.84 18.7198V17.4598ZM8.93996 25.7798V18.5498C8.62725 18.7875 8.2426 18.911 7.84996 18.8998C7.48979 18.8908 7.14092 18.7722 6.84996 18.5598V25.7798C6.84996 26.3569 7.31782 26.8248 7.89496 26.8248C8.4721 26.8248 8.93996 26.3569 8.93996 25.7798ZM4.57996 21.2898C4.22013 21.279 3.87179 21.1605 3.57996 20.9498V28.1998C3.57996 28.7797 4.05006 29.2498 4.62996 29.2498C5.20986 29.2498 5.67996 28.7797 5.67996 28.1998V20.9998C5.35341 21.2108 4.96812 21.3124 4.57996 21.2898ZM11.26 16.4298C10.8833 16.4272 10.5166 16.3085 10.21 16.0898V23.3598C10.21 23.9397 10.6801 24.4098 11.26 24.4098C11.8399 24.4098 12.31 23.9397 12.31 23.3598V16.0998C11.9927 16.3361 11.6054 16.4593 11.21 16.4498L11.26 16.4298ZM4.68996 20.5198H4.46996C3.95081 20.5198 3.52996 20.0989 3.52996 19.5798V4.10977C3.53544 3.59453 3.95469 3.17974 4.46996 3.17977H4.68996C5.20523 3.17974 5.62448 3.59453 5.62996 4.10977V19.5998C5.62996 20.1189 5.20911 20.5398 4.68996 20.5398V20.5198ZM7.76996 18.1398H7.99996C8.51359 18.1398 8.92996 17.7234 8.92996 17.2098V6.50977C8.92999 5.9945 8.5152 5.57525 7.99996 5.56977H7.76996C7.52157 5.56975 7.28349 5.6691 7.10879 5.84568C6.93409 6.02226 6.83729 6.26139 6.83996 6.50977V17.2098C6.83996 17.7234 7.25634 18.1398 7.76996 18.1398ZM11.31 15.6898H11.1C10.5847 15.6898 10.1654 15.275 10.16 14.7598V8.99977C10.1434 8.74024 10.235 8.48543 10.4131 8.29595C10.5912 8.10646 10.8399 7.99924 11.1 7.99977H11.32C11.8391 7.99977 12.26 8.42062 12.26 8.93977V14.7398C12.2626 14.9908 12.1648 15.2325 11.9882 15.4109C11.8116 15.5894 11.571 15.6898 11.32 15.6898H11.31ZM14.41 13.5398H14.63H14.64C15.1552 13.5343 15.57 13.115 15.57 12.5998V11.1098C15.5645 10.5945 15.1452 10.1797 14.63 10.1798H14.41C13.8947 10.1797 13.4754 10.5945 13.47 11.1098V12.5998C13.47 13.1189 13.8908 13.5398 14.41 13.5398Z" fill="#696871"/>
</svg>
